<?xml version="1.0" encoding="iso-8859-1"?>
<!-- Generator: Adobe Illustrator 19.0.0, SVG Export Plug-In . SVG Version: 6.00 Build 0)  -->
<svg version="1.1" id="Capa_1" xmlns="http://www.w3.org/2000/svg" xmlns:xlink="http://www.w3.org/1999/xlink" x="0px" y="0px"
	 viewBox="0 0 480.057 480.057" style="enable-background:new 0 0 480.057 480.057;" xml:space="preserve">
<g>
	<g>
		<path d="M447.034,225.165c-3.016-10.19-12.391-17.169-23.017-17.137v-8c0.03-34.003-8.664-67.444-25.248-97.128l12.448-27.416
			c12.199-26.831,0.337-58.472-26.495-70.671c-6.935-3.153-14.464-4.785-22.081-4.785h-3.056
			c-17.275,0.064-33.456,8.47-43.44,22.568C269.75-1.568,215.721-6.549,165.689,8.724c-8.866-5.653-19.157-8.669-29.672-8.696
			c-30.913,0.035-55.965,25.087-56,56v5.416c-35.941,37.179-56.022,86.873-56,138.584v8C10.802,207.979,0.049,218.652,0,231.867
			c-0.04,10.633,6.942,20.016,17.137,23.033l23.84,131.144c4.841,26.628,28.032,45.984,55.096,45.984h55.944v-16H96.073
			c-19.316,0.003-35.875-13.799-39.352-32.8l-23.104-127.2h380.8l-8.472,46.568l15.744,2.864l9.192-50.56
			C443.553,251.15,450.785,237.837,447.034,225.165z M359.585,16.028h3.056c20.633-0.002,37.362,16.723,37.364,37.356
			c0,5.327-1.138,10.593-3.34,15.444l-8.056,17.76c-3.2-4.64-6.584-9.168-10.168-13.512l2.92-0.896l-4.688-15.304l-10.064,3.088
			c-10.986-11.174-23.237-21.03-36.504-29.368C337.158,21.452,348.037,16.076,359.585,16.028z M136.017,16.028
			c2.616,0.027,5.223,0.311,7.784,0.848c-16.558,7.275-32.054,16.762-46.064,28.2C102.588,27.938,118.206,16.087,136.017,16.028z
			 M224.017,16.028c101.573,0.115,183.885,82.427,184,184v8h-16v-8c0.018-92.753-75.158-167.959-167.911-167.977
			C148.453,32.037,82.128,82.607,62.113,155.565c-13.907,10.556-22.081,27.005-22.096,44.464
			C40.132,98.456,122.444,16.143,224.017,16.028z M320.249,168.365l-12.736,3.84c-3.338-19.473-9.389-38.383-17.976-56.176
			l19.376-41.992c15.571,10.564,29.065,23.904,39.808,39.352l-37.552,11.52l4.696,15.304l41.6-12.8
			c2.368,4.336,4.528,8.792,6.48,13.368l-30.536,67.248h-21.816c-0.352-6.76-0.904-13.384-1.68-19.832l14.952-4.504L320.249,168.365
			z M82.065,145.86c16.113-42.665,50.644-75.763,93.952-90.056c0,0.072,0,0.152,0,0.224v32.984
			c-4.944,5.784-9.334,12.019-13.112,18.624l-7.888-9.856l-40,32l10,12.496l33.944-27.16c-8.152,16.565-14.047,34.149-17.528,52.28
			C128.063,148.55,104.409,139.97,82.065,145.86z M136.017,200.029v8h-80v-8c0.026-22.08,17.92-39.974,40-40
			C118.098,160.055,135.991,177.948,136.017,200.029z M224.017,80.028c36.248,0,67.552,56.696,71.656,128H152.361
			C156.465,136.724,187.769,80.028,224.017,80.028z M191.649,51.596c10.632-2.334,21.483-3.53,32.368-3.568
			c24.791-0.011,49.203,6.083,71.08,17.744l-15.384,33.344c-15.088-22.056-34.392-35.088-55.696-35.088
			c-11.496,0.163-22.665,3.849-32,10.56v-18.56C192.017,54.541,191.769,53.076,191.649,51.596z M371.329,163.229
			c1.762,6.835,3.043,13.786,3.832,20.8h-7.144v16h8v8h-25.032L371.329,163.229z M424.017,240.029h-400c-4.418,0-8-3.582-8-8
			s3.582-8,8-8h400c4.418,0,8,3.582,8,8S428.436,240.029,424.017,240.029z"/>
	</g>
</g>
<g>
	<g>
		<path d="M260.697,121.54c-2.084-1.503-4.762-1.913-7.2-1.104l-41.6,13.88c-21.427,7.102-35.888,27.139-35.88,49.712
			c0,4.418,3.582,8,8,8c0.859-0.001,1.712-0.138,2.528-0.408l41.64-13.88c21.408-7.119,35.847-27.152,35.832-49.712
			C264.017,125.458,262.782,123.044,260.697,121.54z M223.129,162.557l-0.032,0l-29.176,9.728
			c3.665-10.767,12.158-19.198,22.952-22.784l29.176-9.728C242.391,150.532,233.911,158.962,223.129,162.557z"/>
	</g>
</g>
<g>
	<g>
		<rect x="320.017" y="280.029" width="48" height="16"/>
	</g>
</g>
<g>
	<g>
		<rect x="240.017" y="280.029" width="48" height="16"/>
	</g>
</g>
<g>
	<g>
		<rect x="160.017" y="280.029" width="48" height="16"/>
	</g>
</g>
<g>
	<g>
		<rect x="80.017" y="280.029" width="48" height="16"/>
	</g>
</g>
<g>
	<g>
		<rect x="80.017" y="328.029" width="48" height="16"/>
	</g>
</g>
<g>
	<g>
		<rect x="80.017" y="376.029" width="48" height="16"/>
	</g>
</g>
<g>
	<g>
		<rect x="72.017" y="176.029" width="16" height="16"/>
	</g>
</g>
<g>
	<g>
		<rect x="104.017" y="184.029" width="16" height="16"/>
	</g>
</g>
<g>
	<g>
		<path d="M479.041,344.06c-3.64-14.156-16.408-24.046-31.024-24.032h-272c-17.673-0.018-32.014,14.295-32.032,31.968
			c-0.014,14.616,9.876,27.384,24.032,31.024v73.008c0,13.255,10.745,24,24,24h240c13.255,0,24-10.745,24-24v-73.008
			C473.134,378.62,483.442,361.177,479.041,344.06z M296.017,376.029v80c0,4.418-3.582,8-8,8h-96c-4.418,0-8-3.582-8-8v-80
			c0-4.418-3.582-8-8-8c-8.837,0-16-7.163-16-16s7.163-16,16-16h128c8.837,0,16,7.163,16,16s-7.163,16-16,16
			C299.599,368.029,296.017,371.61,296.017,376.029z M448.017,368.029c-4.418,0-8,3.582-8,8v80c0,4.418-3.582,8-8,8H310.545
			c0.948-2.562,1.445-5.268,1.472-8v-73.008c14.117-3.671,23.978-16.406,24-30.992c-0.033-5.634-1.569-11.157-4.448-16h116.448
			c8.837,0,16,7.163,16,16S456.854,368.029,448.017,368.029z"/>
	</g>
</g>
<g>
	<g>
		<rect x="400.017" y="352.029" width="16" height="16"/>
	</g>
</g>
<g>
	<g>
		<rect x="360.017" y="376.029" width="16" height="16"/>
	</g>
</g>
<g>
	<g>
		<rect x="408.017" y="416.029" width="16" height="16"/>
	</g>
</g>
<g>
	<g>
		<rect x="328.017" y="432.029" width="16" height="16"/>
	</g>
</g>
<g>
</g>
<g>
</g>
<g>
</g>
<g>
</g>
<g>
</g>
<g>
</g>
<g>
</g>
<g>
</g>
<g>
</g>
<g>
</g>
<g>
</g>
<g>
</g>
<g>
</g>
<g>
</g>
<g>
</g>
</svg>
