<?xml version="1.0" encoding="utf-8"?>
<!-- Generator: Adobe Illustrator 16.0.0, SVG Export Plug-In . SVG Version: 6.00 Build 0)  -->
<!DOCTYPE svg PUBLIC "-//W3C//DTD SVG 1.1//EN" "http://www.w3.org/Graphics/SVG/1.1/DTD/svg11.dtd">
<svg version="1.1" id="Capa_1" xmlns="http://www.w3.org/2000/svg" xmlns:xlink="http://www.w3.org/1999/xlink" x="0px" y="0px"
	 width="288px" height="288px" viewBox="0 0 288 288" enable-background="new 0 0 288 288" xml:space="preserve">
<g>
	<g>
		<path fill="#FFFFFF" d="M268.188,135.083c-1.81-6.113-7.434-10.3-13.809-10.281v-4.799c0.019-20.399-5.198-40.461-15.147-58.27
			l7.469-16.447c7.318-16.097,0.202-35.079-15.896-42.397c-4.16-1.892-8.677-2.871-13.247-2.871h-1.833
			c-10.364,0.039-20.071,5.082-26.062,13.54C161.83-0.94,129.417-3.929,99.401,5.234c-5.319-3.392-11.493-5.201-17.801-5.217
			C63.055,0.038,48.025,15.067,48.004,33.613v3.249c-21.562,22.305-33.609,52.118-33.596,83.141v4.799
			C6.48,124.772,0.029,131.176,0,139.104c-0.024,6.379,4.165,12.008,10.281,13.818l14.303,78.677
			c2.904,15.976,16.817,27.587,33.053,27.587h33.563v-9.599H57.637c-11.588,0.002-21.522-8.278-23.608-19.677l-13.86-76.312h228.453
			l-5.083,27.938l9.445,1.718l5.515-30.332C266.1,150.672,270.439,142.685,268.188,135.083z M215.726,9.616h1.833
			c12.379-0.001,22.414,10.033,22.416,22.411c0,3.196-0.683,6.355-2.004,9.266l-4.833,10.655c-1.92-2.784-3.95-5.5-6.101-8.106
			l1.752-0.538l-2.813-9.181l-6.037,1.853c-6.591-6.704-13.941-12.617-21.9-17.619C202.271,12.87,208.797,9.645,215.726,9.616z
			 M81.601,9.616c1.569,0.016,3.133,0.187,4.67,0.509c-9.934,4.364-19.23,10.056-27.635,16.918
			C61.545,16.761,70.915,9.651,81.601,9.616z M134.394,9.616c60.936,0.069,110.318,49.45,110.387,110.387v4.799h-9.6v-4.799
			c0.012-55.645-45.089-100.763-100.734-100.774c-45.387-0.009-85.177,30.33-97.185,74.1c-8.343,6.333-13.247,16.201-13.256,26.675
			C24.076,59.066,73.458,9.685,134.394,9.616z M192.127,101.007l-7.641,2.304c-2.003-11.682-5.633-23.027-10.785-33.701
			l11.625-25.192c9.342,6.337,17.437,14.341,23.881,23.608l-22.527,6.911l2.816,9.181l24.957-7.679
			c1.421,2.602,2.717,5.275,3.889,8.02l-18.32,40.344h-13.088c-0.211-4.056-0.543-8.03-1.008-11.898l8.971-2.702L192.127,101.007z
			 M49.233,87.506C58.9,61.91,79.616,42.053,105.598,33.479c0,0.043,0,0.091,0,0.134v19.788c-2.966,3.47-5.6,7.21-7.866,11.173
			l-4.732-5.913L69.002,77.859l6,7.497l20.364-16.294c-4.891,9.938-8.427,20.487-10.516,31.364
			C76.829,89.12,62.638,83.972,49.233,87.506z M81.601,120.003v4.8H33.606v-4.8c0.015-13.246,10.75-23.981,23.997-23.997
			C70.851,96.021,81.585,106.756,81.601,120.003z M134.394,48.011c21.747,0,40.526,34.013,42.989,76.791H91.406
			C93.868,82.024,112.648,48.011,134.394,48.011z M114.976,30.954c6.378-1.4,12.889-2.118,19.418-2.141
			c14.874-0.007,29.518,3.649,42.643,10.645l-9.229,20.004c-9.052-13.232-20.632-21.05-33.414-21.05
			c-6.896,0.098-13.597,2.309-19.198,6.335V33.613C115.196,32.721,115.048,31.842,114.976,30.954z M222.771,97.926
			c1.057,4.101,1.825,8.271,2.299,12.479h-4.286v9.599h4.8v4.8h-15.018L222.771,97.926z M254.38,144H14.409
			c-2.651,0-4.8-2.149-4.8-4.8c0-2.65,2.149-4.799,4.8-4.799H254.38c2.65,0,4.8,2.149,4.8,4.799
			C259.18,141.852,257.031,144,254.38,144z"/>
	</g>
</g>
<g>
	<g>
		<path fill="#FFFFFF" d="M156.399,72.916c-1.25-0.902-2.856-1.148-4.319-0.663l-24.957,8.327
			c-12.854,4.261-21.53,16.281-21.525,29.824c0,2.65,2.149,4.799,4.799,4.799c0.516,0,1.027-0.083,1.517-0.245l24.981-8.327
			c12.844-4.271,21.506-16.289,21.497-29.824C158.392,75.266,157.65,73.817,156.399,72.916z M133.861,97.522h-0.019l-17.503,5.836
			c2.199-6.459,7.294-11.518,13.77-13.669l17.503-5.836C145.418,90.309,140.33,95.366,133.861,97.522z"/>
	</g>
</g>
<g>
	<g>
		<rect x="191.987" y="167.998" fill="#FFFFFF" width="28.797" height="9.598"/>
	</g>
</g>
<g>
	<g>
		<rect x="143.993" y="167.998" fill="#FFFFFF" width="28.796" height="9.598"/>
	</g>
</g>
<g>
	<g>
		<rect x="95.999" y="167.998" fill="#FFFFFF" width="28.796" height="9.598"/>
	</g>
</g>
<g>
	<g>
		<rect x="48.004" y="167.998" fill="#FFFFFF" width="28.797" height="9.598"/>
	</g>
</g>
<g>
	<g>
		<rect x="48.004" y="196.794" fill="#FFFFFF" width="28.797" height="9.599"/>
	</g>
</g>
<g>
	<g>
		<rect x="48.004" y="225.591" fill="#FFFFFF" width="28.797" height="9.599"/>
	</g>
</g>
<g>
	<g>
		<rect x="43.205" y="105.605" fill="#FFFFFF" width="9.599" height="9.599"/>
	</g>
</g>
<g>
	<g>
		<rect x="62.403" y="110.404" fill="#FFFFFF" width="9.599" height="9.599"/>
	</g>
</g>
<g>
	<g>
		<path fill="#FFFFFF" d="M287.391,206.412c-2.184-8.493-9.844-14.427-18.612-14.418H105.598
			c-10.603-0.011-19.206,8.576-19.217,19.178c-0.008,8.77,5.925,16.43,14.417,18.613v43.799c0,7.952,6.446,14.398,14.398,14.398
			H259.18c7.951,0,14.398-6.446,14.398-14.398v-43.799C283.847,227.145,290.031,216.681,287.391,206.412z M177.589,225.591v47.994
			c0,2.65-2.149,4.8-4.8,4.8h-57.593c-2.65,0-4.799-2.149-4.799-4.8v-47.994c0-2.651-2.149-4.8-4.799-4.8
			c-5.302,0-9.599-4.297-9.599-9.599s4.297-9.599,9.599-9.599h76.791c5.301,0,9.599,4.297,9.599,9.599s-4.298,9.599-9.599,9.599
			C179.738,220.791,177.589,222.939,177.589,225.591z M268.778,220.791c-2.65,0-4.8,2.148-4.8,4.8v47.994
			c0,2.65-2.148,4.8-4.799,4.8h-72.875c0.568-1.537,0.867-3.16,0.883-4.8v-43.8c8.47-2.202,14.386-9.842,14.398-18.593
			c-0.02-3.38-0.941-6.693-2.668-9.599h69.86c5.302,0,9.599,4.297,9.599,9.599S274.08,220.791,268.778,220.791z"/>
	</g>
</g>
<g>
	<g>
		<rect x="239.981" y="211.192" fill="#FFFFFF" width="9.599" height="9.599"/>
	</g>
</g>
<g>
	<g>
		<rect x="215.984" y="225.591" fill="#FFFFFF" width="9.6" height="9.599"/>
	</g>
</g>
<g>
	<g>
		<rect x="244.781" y="249.588" fill="#FFFFFF" width="9.599" height="9.599"/>
	</g>
</g>
<g>
	<g>
		<rect x="196.787" y="259.187" fill="#FFFFFF" width="9.599" height="9.599"/>
	</g>
</g>
</svg>
