<?xml version="1.0" encoding="iso-8859-1"?>
<!-- Generator: Adobe Illustrator 18.0.0, SVG Export Plug-In . SVG Version: 6.00 Build 0)  -->
<!DOCTYPE svg PUBLIC "-//W3C//DTD SVG 1.1//EN" "http://www.w3.org/Graphics/SVG/1.1/DTD/svg11.dtd">
<svg version="1.1" id="Capa_1" xmlns="http://www.w3.org/2000/svg" xmlns:xlink="http://www.w3.org/1999/xlink" x="0px" y="0px"
	 viewBox="0 0 460 460" style="enable-background:new 0 0 460 460;" xml:space="preserve">
<path d="M450,428.688h-40v-148c0-5.523-4.478-10-10-10h-32.51v-94c0-5.523-4.478-10-10-10h-32.492v-94c0-5.523-4.478-10-10-10
	h-36.84c9.864-11.669,14.574-26.773,12.967-42.159c-0.491-4.701-4.207-8.417-8.908-8.907c-16.975-1.772-33.625,4.123-45.678,16.174
	c-2.441,2.441-4.616,5.079-6.539,7.862c-1.923-2.783-4.098-5.42-6.539-7.861c0,0,0,0,0,0
	c-12.052-12.052-28.706-17.945-45.678-16.175c-4.702,0.491-8.417,4.207-8.908,8.908c-1.606,15.386,3.104,30.49,12.967,42.158h-36.84
	c-5.523,0-10,4.477-10,10v94H102.51c-5.523,0-10,4.477-10,10v94H60c-5.523,0-10,4.477-10,10v148H10c-5.523,0-10,4.477-10,10
	s4.477,10,10,10h440c5.522,0,10-4.477,10-10S455.523,428.688,450,428.688z M250.682,41.939c5.593-5.594,12.727-9.13,20.371-10.244
	c-1.115,7.644-4.651,14.777-10.245,20.371c0,0,0,0,0,0c-5.594,5.594-12.726,9.13-20.371,10.244
	C241.552,54.665,245.088,47.532,250.682,41.939z M209.319,41.938c5.593,5.594,9.129,12.727,10.244,20.371
	c-7.644-1.115-14.778-4.651-20.371-10.244c-5.593-5.594-9.129-12.727-10.244-20.371C196.591,32.809,203.726,36.346,209.319,41.938z
	 M304.999,82.688v10.014c-8.971,7.964-20.368,12.32-32.504,12.32c-13.432,0-25.968-5.321-35.299-14.982
	c-0.04-0.042-0.087-0.089-0.128-0.13c-1.896-1.896-4.489-2.963-7.158-2.928c-2.683,0.023-5.243,1.123-7.106,3.053
	c-9.332,9.662-21.868,14.984-35.301,14.984c-12.135,0-23.53-4.355-32.5-12.318V82.688H304.999z M155.002,116.93
	c9.871,5.279,20.948,8.089,32.501,8.089c15.641,0,30.418-5.126,42.493-14.597c12.075,9.472,26.855,14.6,42.497,14.6
	c0.002,0,0.001,0,0.002,0c11.551,0,22.627-2.81,32.503-8.094v49.76H155.002V116.93z M347.491,186.688v12.428
	c-8.971,7.965-20.368,12.321-32.504,12.321c-13.432,0-25.968-5.32-35.3-14.981c-0.04-0.042-0.089-0.092-0.13-0.132
	c-1.876-1.876-4.423-2.926-7.074-2.926c-0.028,0-0.058,0-0.087,0c-2.682,0.023-5.245,1.126-7.108,3.055
	c-9.332,9.661-21.868,14.982-35.3,14.982c-13.432,0-25.968-5.321-35.3-14.982c-0.041-0.042-0.087-0.089-0.127-0.13
	c-1.897-1.896-4.493-2.963-7.158-2.929c-2.683,0.023-5.243,1.124-7.106,3.053c-9.331,9.662-21.868,14.984-35.3,14.984
	c-12.128,0.001-23.517-4.35-32.485-12.303v-12.441H347.491z M112.51,223.352c9.867,5.273,20.938,8.081,32.486,8.08
	c15.641,0,30.418-5.126,42.492-14.597c12.076,9.472,26.856,14.6,42.499,14.6c15.634,0,30.409-5.122,42.496-14.602
	c12.077,9.474,26.859,14.603,42.504,14.603c11.555,0,22.633-2.811,32.504-8.091v47.342H112.51V223.352z M390,290.688v11.325
	c-8.971,7.966-20.369,12.323-32.506,12.323c-13.431,0-25.966-5.32-35.273-14.955c-1.881-1.969-4.485-3.081-7.208-3.089
	c-0.009,0-0.018,0-0.027,0c-2.712,0-5.312,1.106-7.196,3.057c-9.332,9.661-21.868,14.982-35.3,14.982
	c-13.419,0-25.943-5.31-35.272-14.952c-1.873-1.959-4.464-3.072-7.176-3.087c-2.759,0.017-5.354,1.091-7.251,3.056
	c-9.332,9.661-21.869,14.982-35.301,14.982c-13.432,0-25.968-5.321-35.3-14.982c-0.041-0.042-0.087-0.089-0.127-0.13
	c-1.897-1.897-4.483-2.951-7.158-2.928c-2.683,0.023-5.243,1.123-7.106,3.053c-9.331,9.662-21.868,14.984-35.3,14.984
	C90.364,314.326,78.97,309.972,70,302.011v-11.323H390z M70,428.688V326.239c9.87,5.278,20.946,8.087,32.499,8.087
	c15.641,0,30.418-5.126,42.492-14.597c12.076,9.472,26.856,14.6,42.499,14.6c0.001,0,0,0,0.001,0
	c15.634,0,30.408-5.122,42.496-14.602c12.076,9.474,26.859,14.603,42.504,14.603c15.645,0,30.427-5.129,42.5-14.6
	c12.076,9.476,26.859,14.605,42.504,14.605c0.002,0,0,0,0.001,0c11.55,0,22.625-2.809,32.506-8.099v102.451H70z"/>
<g>
</g>
<g>
</g>
<g>
</g>
<g>
</g>
<g>
</g>
<g>
</g>
<g>
</g>
<g>
</g>
<g>
</g>
<g>
</g>
<g>
</g>
<g>
</g>
<g>
</g>
<g>
</g>
<g>
</g>
</svg>
