<?xml version="1.0" encoding="iso-8859-1"?>
<!-- Generator: Adobe Illustrator 21.0.0, SVG Export Plug-In . SVG Version: 6.00 Build 0)  -->
<svg version="1.1" id="Capa_1" xmlns="http://www.w3.org/2000/svg" xmlns:xlink="http://www.w3.org/1999/xlink" x="0px" y="0px"
	 viewBox="0 0 512.068 512.068" style="enable-background:new 0 0 512.068 512.068;" xml:space="preserve">
<g>
	<g>
		<path d="M503.501,495.002h-34.133v-93.867c-0.028-23.552-19.114-42.638-42.667-42.667v-76.8
			c-0.028-23.552-19.114-42.638-42.667-42.667v-59.733c-0.028-23.552-19.114-42.638-42.667-42.667h-56.38
			c17.355-11.327,32.065-26.26,43.127-43.785c18.193-31.812,17.476-64.503-1.792-81.357c-11.185-9.349-25.938-13.262-40.286-10.684
			c-11.62,1.968-22.211,7.866-30.003,16.708c-7.793-8.84-18.384-14.738-30.003-16.708c-14.348-2.571-29.098,1.341-40.286,10.684
			c-19.268,16.853-19.985,49.544-1.911,81.135c11.086,17.609,25.84,32.619,43.255,44.006h-56.388
			c-23.552,0.028-42.638,19.114-42.667,42.667v59.733c-23.552,0.028-42.638,19.114-42.667,42.667v76.8
			c-23.552,0.028-42.638,19.114-42.667,42.667v93.867H8.567c-4.713,0-8.533,3.82-8.533,8.533s3.82,8.533,8.533,8.533h494.933
			c4.713,0,8.533-3.82,8.533-8.533S508.214,495.002,503.501,495.002z M198.767,84.343c-14.046-24.542-14.763-48.691-1.792-60.032
			c5.769-4.752,13.041-7.296,20.514-7.177c1.916,0.002,3.828,0.162,5.717,0.478c10.914,1.924,20.311,8.82,25.421,18.654
			c1.643,2.489,4.425,3.986,7.407,3.986s5.764-1.497,7.407-3.986c5.108-9.836,14.506-16.732,25.421-18.654
			c9.302-1.699,18.883,0.748,26.231,6.699c12.971,11.341,12.254,35.49-1.886,60.237c-8.158,15.275-28.86,33.587-57.173,50.645
			C227.746,118.153,207.036,99.823,198.767,84.343z M170.701,153.668h170.667c11.28,0.04,21.199,7.472,24.405,18.287
			c-10.665,3.199-19.995,9.79-26.573,18.773c-7.919,9.02-12.911,14.14-23.433,14.14s-15.548-5.12-23.458-14.157
			c-8.229-12.081-21.734-19.504-36.343-19.977c-14.59,0.485-28.072,7.907-36.284,19.977c-7.91,9.037-12.894,14.157-23.441,14.157
			c-10.547,0-15.514-5.12-23.407-14.148c-6.567-8.98-15.885-15.571-26.539-18.773C149.505,161.135,159.423,153.707,170.701,153.668z
			 M145.101,189.346c5.898,2.95,11.001,7.272,14.882,12.604c8.197,12.074,21.673,19.501,36.258,19.985
			c14.591-0.481,28.075-7.904,36.284-19.977c7.91-9.037,12.894-14.157,23.441-14.157c10.547,0,15.548,5.12,23.467,14.157
			c7.88,12.437,21.578,19.974,36.301,19.974s28.421-7.537,36.301-19.974c3.889-5.348,9.012-9.678,14.933-12.621v49.664H145.101
			V189.346z M102.434,281.668c0-14.138,11.461-25.6,25.6-25.6h256c14.138,0,25.6,11.462,25.6,25.6v0.503
			c-14.19,1.982-27.359,8.495-37.547,18.569c-9.121,9.615-21.793,15.061-35.046,15.061c-13.254,0-25.925-5.445-35.046-15.061
			c-12.204-12.212-28.76-19.073-46.025-19.073c-17.264,0-33.821,6.861-46.025,19.073c-9.113,9.615-21.778,15.061-35.025,15.061
			s-25.912-5.446-35.025-15.061c-10.164-10.059-23.302-16.571-37.461-18.569V281.668z M102.434,299.477
			c10.046,2.069,19.261,7.049,26.496,14.319c12.204,12.212,28.76,19.073,46.025,19.073s33.821-6.861,46.025-19.073
			c9.114-9.616,21.781-15.062,35.029-15.062c13.249,0,25.915,5.446,35.029,15.062c12.211,12.212,28.772,19.072,46.042,19.072
			s33.831-6.861,46.042-19.072c7.242-7.272,16.462-12.254,26.513-14.328v59h-307.2V299.477z M452.301,495.002H59.767v-76.416
			c13.831,1.396,26.983,6.683,37.931,15.249c16.027,12.296,35.738,18.815,55.936,18.5c20.19,0.314,39.893-6.206,55.91-18.5
			c13.188-10.458,29.611-15.987,46.438-15.633c16.838-0.355,33.273,5.173,46.473,15.633c33.223,24.662,78.675,24.662,111.898,0
			c10.953-8.568,24.111-13.855,37.948-15.249V495.002z M452.301,401.51c-17.21,1.393-33.661,7.682-47.411,18.125
			c-27.482,20.843-65.48,20.843-92.962,0c-16.029-12.298-35.744-18.817-55.945-18.5c-20.192-0.315-39.899,6.205-55.919,18.5
			c-13.185,10.457-29.605,15.985-46.43,15.633c-16.835,0.355-33.267-5.173-46.464-15.633c-13.748-10.441-30.196-16.73-47.403-18.125
			v-0.375c0-14.138,11.461-25.6,25.6-25.6h341.333c14.138,0,25.6,11.462,25.6,25.6V401.51z"/>
	</g>
</g>
<g>
</g>
<g>
</g>
<g>
</g>
<g>
</g>
<g>
</g>
<g>
</g>
<g>
</g>
<g>
</g>
<g>
</g>
<g>
</g>
<g>
</g>
<g>
</g>
<g>
</g>
<g>
</g>
<g>
</g>
</svg>
